<svg width="600" height="600" viewBox="0 0 600 600" fill="none" xmlns="http://www.w3.org/2000/svg">
<path d="M563.846 29.4921C544.444 11.7916 518.653 1.24658 490.303 1.24658H109.138C49.7251 1.24658 1.41552 48.4653 0.0389594 107.541C0.0259729 108.58 0 109.359 0 110.385V489.602C0 549.872 48.855 598.74 109.138 598.74H490.862C551.171 598.74 600 549.859 600 489.602V110.385C600 78.1783 586.027 49.4783 563.846 29.4921ZM400.684 192.875C400.684 249.106 355.102 294.675 298.896 294.675C242.704 294.675 197.121 249.106 197.121 192.875C197.121 136.669 242.704 91.0868 298.896 91.0868C355.128 91.0739 400.684 136.656 400.684 192.875ZM183.265 520.588C157.227 520.588 136.124 499.485 136.124 473.447V446.864C136.124 389.892 182.68 344.115 239.639 344.115H358.166C415.138 344.115 461.318 389.866 461.318 446.864V473.447C461.318 499.485 440.215 520.588 414.19 520.588H183.265Z" fill="white"/>
</svg>
