<svg width="600" height="600" viewBox="0 0 600 600" fill="none" xmlns="http://www.w3.org/2000/svg">
<path d="M545.105 362.167L544.771 304.744L600 273.839L299.176 115.191L0 277.012L119.948 345.88L120.187 386.801L120.211 390.07L121.307 389.545C120.043 391.261 119.233 393.025 119.257 394.79C119.352 414.916 200.597 430.845 300.873 430.298C401.099 429.773 482.225 412.915 482.154 392.835C482.154 391.07 481.224 389.354 479.984 387.59L481.08 388.115V384.846L480.865 343.759L532.875 311.4L533.16 362.24C527.437 364.696 523.456 370.324 523.502 376.907C523.551 385.54 530.561 392.525 539.265 392.454C548.017 392.405 554.956 385.347 554.907 376.738C554.859 370.156 550.853 364.576 545.105 362.167ZM300.799 416.442C211.829 416.942 139.669 407.165 139.598 394.695C139.527 382.223 211.59 371.754 300.563 371.3C389.557 370.8 461.693 380.529 461.742 392.977C461.81 405.402 389.794 415.966 300.799 416.442ZM476.762 310.421C464.72 297.758 421.557 264.325 299.989 265.018C178.252 265.663 135.639 299.501 123.741 312.354L123.67 300.241C123.67 300.241 158.199 247.706 299.896 246.967C441.52 246.203 476.694 298.332 476.694 298.332L476.762 310.421ZM526.602 395.886L520.473 484.809C539.431 455.025 555.266 466.113 555.266 466.113L554.885 395.742C534.517 403.733 526.602 395.886 526.602 395.886Z" fill="white"/>
</svg>
