<svg width="600" height="600" viewBox="0 0 600 600" fill="none" xmlns="http://www.w3.org/2000/svg">
<g clip-path="url(#clip0_1913_2283)">
<path d="M267.602 505.703L282.121 480.353H347.905C352.353 480.353 355.957 476.749 355.957 472.301C355.957 467.853 352.353 464.249 347.905 464.249H291.346L300.57 448.146H347.905C352.353 448.146 355.957 444.542 355.957 440.094C355.957 435.646 352.353 432.042 347.905 432.042H309.788L315.508 422.051C326.97 421.095 333.296 409.945 339.409 399.123C345.003 389.213 350.787 378.961 359.471 376.546C375.13 372.188 386.902 367.135 397.282 362.674C415.869 354.693 430.552 348.387 460.064 348.387C556.386 348.39 600.008 310.604 600.008 299.135C600.008 291.612 585.379 278.796 565.984 269.324C546.038 259.585 510.33 247.977 453.49 247.977C425.38 247.977 412.055 242.183 395.182 234.846C385.426 230.604 374.366 225.793 359.149 221.596C350.575 219.232 344.865 209.032 339.344 199.17C333.096 188.01 326.629 176.49 314.483 176.145L311.633 171.166H347.905C352.353 171.166 355.957 167.562 355.957 163.114C355.957 158.666 352.353 155.062 347.905 155.062H302.412L295.033 142.179L347.905 142.179C352.353 142.179 355.957 138.575 355.957 134.127C355.957 129.68 352.353 126.076 347.905 126.076L285.812 126.076L267.599 94.2741C264.797 89.3947 258.014 84.2061 250.971 84.2061H226.957C218.973 84.2061 212.718 90.8118 212.702 98.9345L212.657 228.231L147.901 217.899C145.868 217.573 142.21 215.905 140.515 214.527L46.8018 138.301C42.6857 134.949 35.7676 132.52 30.3632 132.52H12.691C5.47981 132.52 0.0399609 137.712 0.0399609 144.598C0.0399609 146.163 0.326604 147.745 0.893453 149.297L53.8327 294.369C54.0485 294.961 54.2675 296.233 54.2675 297.734C54.2675 299.29 54.0485 300.462 53.852 301.006L0.835512 450.059C0.291208 451.589 0.0142091 453.167 0.0142091 454.751C0.0142091 458.088 1.24133 461.225 3.46686 463.576C5.84054 466.092 9.11924 467.476 12.691 467.476H30.3632C36.0671 467.476 43.0142 464.117 46.9338 460.797L140.876 381.003C142.567 379.57 146.277 377.795 148.232 377.48L212.657 367.096L212.705 501.066C212.721 509.185 218.979 515.788 226.96 515.788H250.974C258.014 515.778 264.797 510.592 267.602 505.703ZM437.564 300.275C437.564 284.729 458.589 272.129 484.525 272.129C510.462 272.129 531.487 284.732 531.487 300.275C531.487 315.819 510.462 328.421 484.525 328.421C458.589 328.421 437.564 315.822 437.564 300.275Z" fill="white"/>
</g>
<defs>
<clipPath id="clip0_1913_2283">
<rect width="600" height="600" fill="white"/>
</clipPath>
</defs>
</svg>
