<svg width="600" height="600" viewBox="0 0 600 600" fill="none" xmlns="http://www.w3.org/2000/svg">
<path d="M359.989 102.356L419.698 18.75H180.289L239.998 102.356H359.989Z" fill="white"/>
<path d="M537.975 60.5532H434.137L440.597 79.3032H537.975C551.269 79.3032 562.5 88.1251 562.5 98.5688V543.244C562.5 553.678 551.269 562.5 537.975 562.5H323.869L379.341 517.894L353.381 261.825L448.547 102.356L363.15 220.913C368.981 190.144 343.275 125.794 343.275 125.794C343.275 125.794 310.809 138.469 300 138.469C289.191 138.469 256.725 125.794 256.725 125.794C256.725 125.794 231.234 193.416 238.322 223.631L151.444 102.356L246.562 261.825L220.688 517.894L276.909 562.5H62.025C48.7313 562.5 37.5 553.678 37.5 543.234V98.5688C37.5 88.1251 48.7313 79.3032 62.025 79.3032H159.403L165.862 60.5532H62.025C38.1281 60.5532 18.75 77.5595 18.75 98.5688V543.244C18.75 564.225 38.1281 581.25 62.025 581.25H537.975C561.872 581.25 581.25 564.225 581.25 543.234V98.5688C581.25 77.5595 561.872 60.5532 537.975 60.5532Z" fill="white"/>
</svg>
