<svg width="600" height="600" viewBox="0 0 600 600" fill="none" xmlns="http://www.w3.org/2000/svg">
<path d="M158.138 319.56H223.908V590.323C223.908 595.668 228.24 600 233.585 600H345.1C350.446 600 354.778 595.668 354.778 590.323V320.835H430.385C435.302 320.835 439.438 317.146 439.999 312.263L451.482 212.582C451.798 209.839 450.929 207.093 449.094 205.035C447.257 202.976 444.629 201.797 441.871 201.797H354.782V139.312C354.782 120.476 364.924 110.925 384.929 110.925C387.78 110.925 441.871 110.925 441.871 110.925C447.216 110.925 451.548 106.591 451.548 101.247V9.74903C451.548 4.40323 447.216 0.0716129 441.871 0.0716129H363.396C362.843 0.0445161 361.614 0 359.802 0C346.186 0 298.858 2.6729 261.472 37.0664C220.049 75.18 225.807 120.815 227.183 128.727V201.795H158.138C152.793 201.795 148.461 206.127 148.461 211.473V309.881C148.461 315.226 152.793 319.56 158.138 319.56Z" fill="#908F90"/>
</svg>
