<svg width="600" height="600" viewBox="0 0 600 600" xmlns="http://www.w3.org/2000/svg">
<path d="M300 0C131.25 0 0 131.25 0 300C0 496.875 178.125 581.25 206.25 581.25C225 581.25 225 571.875 225 562.5V515.625C159.375 534.375 131.25 496.875 121.875 468.75C121.875 468.75 121.875 459.375 103.125 440.625C93.75 431.25 56.25 412.5 93.75 412.5C121.875 412.5 140.625 450 140.625 450C168.75 487.5 206.25 478.125 225 468.75C225 450 243.75 431.25 243.75 431.25C168.75 421.875 112.5 393.75 112.5 290.625C112.5 253.125 121.875 225 140.625 206.25C140.625 206.25 121.875 168.75 140.625 121.875C140.625 121.875 187.5 121.875 225 159.375C253.125 140.625 346.875 140.625 375 159.375C412.5 121.875 459.375 121.875 459.375 121.875C478.125 187.5 459.375 206.25 459.375 206.25C478.125 225 487.5 253.125 487.5 290.625C487.5 393.75 421.875 421.875 356.25 431.25C365.625 440.625 375 459.375 375 487.5V562.5C375 571.875 375 581.25 393.75 581.25C421.875 581.25 600 496.875 600 300C600 131.25 468.75 0 300 0Z"/>
</svg>
