<svg width="600" height="600" viewBox="0 0 600 600" xmlns="http://www.w3.org/2000/svg">
<path d="M434.416 0H165.574C74.2764 0 0 74.28 0 165.577V434.419C0 525.72 74.2764 599.996 165.574 599.996H434.416C525.72 599.996 599.996 525.716 599.996 434.419V165.577C600 74.28 525.72 0 434.416 0ZM546.765 434.419C546.765 496.366 496.366 546.762 434.419 546.762H165.574C103.63 546.765 53.2346 496.366 53.2346 434.419V165.577C53.2346 103.634 103.63 53.2346 165.574 53.2346H434.416C496.363 53.2346 546.762 103.634 546.762 165.577V434.419H546.765Z" />
<path d="M299.995 145.401C214.745 145.401 145.391 214.755 145.391 300.005C145.391 385.252 214.745 454.602 299.995 454.602C385.244 454.602 454.598 385.252 454.598 300.005C454.598 214.755 385.244 145.401 299.995 145.401ZM299.995 401.364C244.102 401.364 198.625 355.894 198.625 300.002C198.625 244.105 244.098 198.632 299.995 198.632C355.891 198.632 401.364 244.105 401.364 300.002C401.364 355.894 355.887 401.364 299.995 401.364Z" />
<path d="M461.086 100.262C450.829 100.262 440.754 104.414 433.51 111.689C426.231 118.929 422.047 129.008 422.047 139.3C422.047 149.561 426.235 159.636 433.51 166.911C440.75 174.151 450.829 178.339 461.086 178.339C471.378 178.339 481.421 174.151 488.697 166.911C495.972 159.636 500.124 149.557 500.124 139.3C500.124 129.008 495.972 118.929 488.697 111.689C481.457 104.414 471.378 100.262 461.086 100.262Z" />
</svg>