<svg width="600" height="600" viewBox="0 0 600 600" xmlns="http://www.w3.org/2000/svg">
<path d="M139.667 193.026H19.2165C13.8707 193.026 9.53906 197.36 9.53906 202.704V589.661C9.53906 595.007 13.8707 599.339 19.2165 599.339H139.667C145.013 599.339 149.345 595.007 149.345 589.661V202.704C149.345 197.36 145.013 193.026 139.667 193.026Z" />
<path d="M79.4826 0.660156C35.6555 0.660156 0 36.2769 0 80.0556C0 123.854 35.6555 159.484 79.4826 159.484C123.275 159.484 158.901 123.852 158.901 80.0556C158.903 36.2769 123.275 0.660156 79.4826 0.660156Z" />
<path d="M446.038 183.408C397.661 183.408 361.899 204.205 340.208 227.835V202.703C340.208 197.359 335.876 193.026 330.53 193.026H215.177C209.832 193.026 205.5 197.359 205.5 202.703V589.66C205.5 595.006 209.832 599.338 215.177 599.338H335.365C340.711 599.338 345.043 595.006 345.043 589.66V398.206C345.043 333.691 362.566 308.557 407.539 308.557C456.519 308.557 460.411 348.849 460.411 401.526V589.662C460.411 595.008 464.743 599.34 470.088 599.34H590.321C595.666 599.34 599.998 595.008 599.998 589.662V377.409C599.998 281.477 581.706 183.408 446.038 183.408Z" />
</svg>
