<svg width="600" height="600" viewBox="0 0 600 600" fill="none" xmlns="http://www.w3.org/2000/svg">
<path d="M443.969 344.768C442.8 344.207 399.059 322.667 391.286 319.87C388.113 318.73 384.713 317.618 381.098 317.618C375.191 317.618 370.229 320.561 366.364 326.343C361.995 332.838 348.768 348.3 344.681 352.919C344.147 353.528 343.418 354.257 342.982 354.257C342.59 354.257 335.821 351.469 333.772 350.579C286.849 330.197 251.233 281.182 246.349 272.916C245.652 271.728 245.622 271.188 245.616 271.188C245.788 270.559 247.366 268.977 248.18 268.161C250.563 265.804 253.144 262.697 255.641 259.691C256.824 258.267 258.008 256.841 259.171 255.497C262.794 251.281 264.407 248.008 266.277 244.217L267.257 242.248C271.824 233.176 267.924 225.52 266.663 223.048C265.629 220.979 247.159 176.404 245.196 171.721C240.474 160.42 234.234 155.158 225.563 155.158C224.759 155.158 225.563 155.158 222.189 155.3C218.081 155.474 195.707 158.419 185.815 164.655C175.325 171.269 157.578 192.35 157.578 229.426C157.578 262.794 178.753 294.3 187.845 306.282C188.071 306.584 188.486 307.198 189.088 308.078C223.905 358.926 267.31 396.609 311.311 414.187C353.671 431.108 373.73 433.063 385.134 433.063C385.136 433.063 385.136 433.063 385.136 433.063C389.928 433.063 393.764 432.687 397.148 432.354L399.294 432.15C413.928 430.852 446.087 414.189 453.402 393.861C459.164 377.85 460.683 360.356 456.85 354.008C454.224 349.691 449.698 347.519 443.969 344.768Z" fill="#908F90"/>
<path d="M305.326 0C142.827 0 10.6242 131.209 10.6242 292.486C10.6242 344.649 24.584 395.71 51.0288 440.398L0.412535 589.706C-0.530322 592.49 0.170976 595.568 2.23007 597.664C3.71643 599.182 5.73266 600 7.79176 600C8.58072 600 9.37552 599.881 10.1508 599.634L165.839 550.161C208.443 572.924 256.595 584.94 305.327 584.94C467.811 584.942 600 453.746 600 292.486C600 131.209 467.811 0 305.326 0ZM305.326 524.014C259.47 524.014 215.057 510.773 176.879 485.721C175.595 484.878 174.105 484.445 172.605 484.445C171.812 484.445 171.017 484.566 170.244 484.812L92.2534 509.603L117.43 435.325C118.244 432.921 117.837 430.27 116.337 428.221C87.2645 388.496 71.8963 341.562 71.8963 292.486C71.8963 164.805 176.612 60.9273 305.324 60.9273C434.02 60.9273 538.724 164.805 538.724 292.486C538.726 420.152 434.024 524.014 305.326 524.014Z" fill="#908F90"/>
</svg>
