<svg width="600" height="600" viewBox="0 0 600 600" fill="none" xmlns="http://www.w3.org/2000/svg">
<path d="M545.105 362.167L544.771 304.743L600 273.839L299.176 115.19L0 277.012L119.948 345.879L120.187 386.801L120.211 390.069L121.307 389.544C120.043 391.26 119.233 393.025 119.257 394.789C119.352 414.916 200.597 430.844 300.873 430.297C401.099 429.773 482.225 412.914 482.154 392.834C482.154 391.07 481.224 389.354 479.984 387.589L481.08 388.114V384.846L480.865 343.758L532.875 311.399L533.16 362.24C527.437 364.695 523.456 370.324 523.502 376.906C523.551 385.539 530.561 392.524 539.265 392.454C548.017 392.405 554.956 385.346 554.907 376.738C554.859 370.155 550.853 364.576 545.105 362.167ZM300.799 416.441C211.829 416.942 139.669 407.164 139.598 394.694C139.527 382.222 211.59 371.754 300.563 371.3C389.557 370.799 461.693 380.528 461.742 392.976C461.81 405.402 389.794 415.965 300.799 416.441ZM476.762 310.42C464.72 297.758 421.557 264.325 299.989 265.018C178.252 265.662 135.639 299.501 123.741 312.353L123.67 300.24C123.67 300.24 158.199 247.706 299.896 246.966C441.52 246.202 476.694 298.331 476.694 298.331L476.762 310.42ZM526.602 395.885L520.473 484.809C539.431 455.025 555.266 466.113 555.266 466.113L554.885 395.741C534.517 403.732 526.602 395.885 526.602 395.885Z" fill="#908F90"/>
</svg>
