<?xml version="1.0" encoding="iso-8859-1"?>
<!-- Generator: Adobe Illustrator 17.1.0, SVG Export Plug-In . SVG Version: 6.00 Build 0)  -->
<!DOCTYPE svg PUBLIC "-//W3C//DTD SVG 1.1//EN" "http://www.w3.org/Graphics/SVG/1.1/DTD/svg11.dtd">
<svg version="1.1" id="Capa_1" xmlns="http://www.w3.org/2000/svg" xmlns:xlink="http://www.w3.org/1999/xlink" x="0px" y="0px"
	 viewBox="0 0 186.293 186.293" style="enable-background:new 0 0 186.293 186.293;" xml:space="preserve">
<path d="M157.018,103.208l-7.871-4.508V78.275c0-1.381-1.119-2.5-2.5-2.5s-2.5,1.119-2.5,2.5v17.561l-5-2.864V78.275
	c0-1.381-1.119-2.5-2.5-2.5s-2.5,1.119-2.5,2.5V90.11l-3.102-1.776c-0.297-3.559-3.759-5.523-7.119-7.421
	c-3.077-1.737-6.26-3.533-7.01-6.229c-1.353-4.862-2.922-8.517-4.307-11.74c-2.478-5.771-4.436-10.33-4.436-19.493
	C108.174,13.544,96.442,0,92.881,0c-2.336,0-6.315,4.542-9.256,10.564c-3.024,6.193-6.628,17.28-6.628,34.928
	c0,8.728-1.799,12.865-4.077,18.104c-1.317,3.029-2.811,6.463-4.114,11.188c-0.734,2.662-3.901,4.435-6.963,6.149
	c-3.465,1.94-7.042,3.948-7.149,7.719l-1.546,0.885V78.275c0-1.381-1.119-2.5-2.5-2.5s-2.5,1.119-2.5,2.5V92.4l-4,2.291V78.275
	c0-1.381-1.119-2.5-2.5-2.5s-2.5,1.119-2.5,2.5v19.279l-9.874,5.655c-1.515,0.87-3.126,2.976-3.126,5.163v7.456
	c0,2.479,2.051,4.421,4.573,4.426l40.145,0.014l-3.208,20.106c-0.101,0.631-0.619,1.767-1.047,2.293l-23.667,29.097
	c-1.041,1.278-1.795,3.426-1.795,5.104v5.487c0,2.239,1.612,3.928,3.75,3.928c0.486,0,0.977-0.089,1.459-0.265l45.043-16.437
	c0.184-0.067,0.579-0.135,1.045-0.135c0.483,0,0.847,0.068,1.016,0.129l46.279,16.461c0.475,0.169,0.965,0.255,1.457,0.255
	c1.036,0,2.01-0.381,2.74-1.072c0.781-0.737,1.211-1.755,1.211-2.864v-5.487c0-1.771-1.043-3.928-2.074-5.145l-24.775-29.168
	c-0.445-0.525-0.996-1.677-1.094-2.284l-3.224-20.003l41.596-0.015c2.521-0.005,4.571-1.948,4.571-4.426v-7.456
	C160.146,106.185,158.536,104.079,157.018,103.208z M93.235,50.437c-4.827,0-8.739-6.528-8.739-14.581
	c0-8.053,3.913-14.581,8.739-14.581s8.739,6.528,8.739,14.581C101.974,43.909,98.062,50.437,93.235,50.437z"/>
<g>
</g>
<g>
</g>
<g>
</g>
<g>
</g>
<g>
</g>
<g>
</g>
<g>
</g>
<g>
</g>
<g>
</g>
<g>
</g>
<g>
</g>
<g>
</g>
<g>
</g>
<g>
</g>
<g>
</g>
</svg>
