<svg width="40" height="40" viewBox="0 0 600 600" xmlns="http://www.w3.org/2000/svg">
<path d="M359.989 102.356L419.698 18.75H180.289L239.998 102.356H359.989Z" />
<path d="M537.975 60.5527H434.137L440.597 79.3027H537.975C551.269 79.3027 562.5 88.1246 562.5 98.5684V543.243C562.5 553.678 551.269 562.5 537.975 562.5H323.869L379.341 517.893L353.381 261.825L448.547 102.356L363.15 220.912C368.981 190.143 343.275 125.793 343.275 125.793C343.275 125.793 310.809 138.468 300 138.468C289.191 138.468 256.725 125.793 256.725 125.793C256.725 125.793 231.234 193.415 238.322 223.631L151.444 102.356L246.562 261.825L220.688 517.893L276.909 562.5H62.025C48.7313 562.5 37.5 553.678 37.5 543.234V98.5684C37.5 88.1246 48.7313 79.3027 62.025 79.3027H159.403L165.862 60.5527H62.025C38.1281 60.5527 18.75 77.559 18.75 98.5684V543.243C18.75 564.225 38.1281 581.25 62.025 581.25H537.975C561.872 581.25 581.25 564.225 581.25 543.234V98.5684C581.25 77.559 561.872 60.5527 537.975 60.5527Z" />
</svg>
